<svg id="visual" viewBox="0 0 960 540" width="960" height="540" xmlns="http://www.w3.org/2000/svg" xmlns:xlink="http://www.w3.org/1999/xlink" version="1.1"><path d="M0 60L14.5 63.7C29 67.3 58 74.7 87.2 78.3C116.3 82 145.7 82 174.8 85.7C204 89.3 233 96.7 262 89.5C291 82.3 320 60.7 349 60.7C378 60.7 407 82.3 436.2 82.3C465.3 82.3 494.7 60.7 523.8 62.3C553 64 582 89 611 94.3C640 99.7 669 85.3 698 79.2C727 73 756 75 785.2 80.5C814.3 86 843.7 95 872.8 90.5C902 86 931 68 945.5 59L960 50L960 0L945.5 0C931 0 902 0 872.8 0C843.7 0 814.3 0 785.2 0C756 0 727 0 698 0C669 0 640 0 611 0C582 0 553 0 523.8 0C494.7 0 465.3 0 436.2 0C407 0 378 0 349 0C320 0 291 0 262 0C233 0 204 0 174.8 0C145.7 0 116.3 0 87.2 0C58 0 29 0 14.5 0L0 0Z" fill="#57a497"></path><path d="M0 185L14.5 189.5C29 194 58 203 87.2 214.7C116.3 226.3 145.7 240.7 174.8 255C204 269.3 233 283.7 262 283.7C291 283.7 320 269.3 349 262.2C378 255 407 255 436.2 261.3C465.3 267.7 494.7 280.3 523.8 292C553 303.7 582 314.3 611 301.7C640 289 669 253 698 252.2C727 251.3 756 285.7 785.2 284.8C814.3 284 843.7 248 872.8 223.7C902 199.3 931 186.7 945.5 180.3L960 174L960 48L945.5 57C931 66 902 84 872.8 88.5C843.7 93 814.3 84 785.2 78.5C756 73 727 71 698 77.2C669 83.3 640 97.7 611 92.3C582 87 553 62 523.8 60.3C494.7 58.7 465.3 80.3 436.2 80.3C407 80.3 378 58.7 349 58.7C320 58.7 291 80.3 262 87.5C233 94.7 204 87.3 174.8 83.7C145.7 80 116.3 80 87.2 76.3C58 72.7 29 65.3 14.5 61.7L0 58Z" fill="#419486"></path><path d="M0 293L14.5 291.2C29 289.3 58 285.7 87.2 291C116.3 296.3 145.7 310.7 174.8 322.3C204 334 233 343 262 348.3C291 353.7 320 355.3 349 351.7C378 348 407 339 436.2 343.5C465.3 348 494.7 366 523.8 381.3C553 396.7 582 409.3 611 395.8C640 382.3 669 342.7 698 334.7C727 326.7 756 350.3 785.2 355.8C814.3 361.3 843.7 348.7 872.8 338.7C902 328.7 931 321.3 945.5 317.7L960 314L960 172L945.5 178.3C931 184.7 902 197.3 872.8 221.7C843.7 246 814.3 282 785.2 282.8C756 283.7 727 249.3 698 250.2C669 251 640 287 611 299.7C582 312.3 553 301.7 523.8 290C494.7 278.3 465.3 265.7 436.2 259.3C407 253 378 253 349 260.2C320 267.3 291 281.7 262 281.7C233 281.7 204 267.3 174.8 253C145.7 238.7 116.3 224.3 87.2 212.7C58 201 29 192 14.5 187.5L0 183Z" fill="#288476"></path><path d="M0 368L14.5 366.2C29 364.3 58 360.7 87.2 361.7C116.3 362.7 145.7 368.3 174.8 377.3C204 386.3 233 398.7 262 411.2C291 423.7 320 436.3 349 430.2C378 424 407 399 436.2 394.5C465.3 390 494.7 406 523.8 419.5C553 433 582 444 611 433.2C640 422.3 669 389.7 698 382.3C727 375 756 393 785.2 403C814.3 413 843.7 415 872.8 409.7C902 404.3 931 391.7 945.5 385.3L960 379L960 312L945.5 315.7C931 319.3 902 326.7 872.8 336.7C843.7 346.7 814.3 359.3 785.2 353.8C756 348.3 727 324.7 698 332.7C669 340.7 640 380.3 611 393.8C582 407.3 553 394.7 523.8 379.3C494.7 364 465.3 346 436.2 341.5C407 337 378 346 349 349.7C320 353.3 291 351.7 262 346.3C233 341 204 332 174.8 320.3C145.7 308.7 116.3 294.3 87.2 289C58 283.7 29 287.3 14.5 289.2L0 291Z" fill="#237266"></path><path d="M0 541L14.5 541C29 541 58 541 87.2 541C116.3 541 145.7 541 174.8 541C204 541 233 541 262 541C291 541 320 541 349 541C378 541 407 541 436.2 541C465.3 541 494.7 541 523.8 541C553 541 582 541 611 541C640 541 669 541 698 541C727 541 756 541 785.2 541C814.3 541 843.7 541 872.8 541C902 541 931 541 945.5 541L960 541L960 377L945.5 383.3C931 389.7 902 402.3 872.8 407.7C843.7 413 814.3 411 785.2 401C756 391 727 373 698 380.3C669 387.7 640 420.3 611 431.2C582 442 553 431 523.8 417.5C494.7 404 465.3 388 436.2 392.5C407 397 378 422 349 428.2C320 434.3 291 421.7 262 409.2C233 396.7 204 384.3 174.8 375.3C145.7 366.3 116.3 360.7 87.2 359.7C58 358.7 29 362.3 14.5 364.2L0 366Z" fill="#1e6156"></path></svg>